<svg xmlns="http://www.w3.org/2000/svg" id="ae7ad495-543d-4c4b-9483-8059c5566fe6" viewBox="0 0 998.91 783.8"><defs><style>.cls-1{fill:#38d39f;opacity:.1}.cls-1,.cls-7{isolation:isolate}.cls-11,.cls-2,.cls-5{fill:#900c3f}.cls-2{opacity:.07}.cls-13,.cls-16,.cls-3{fill:#c70039}.cls-3{opacity:.06}.cls-4{fill:#3a3768}.cls-6,.cls-7,.cls-9{fill:#fff}.cls-10,.cls-8{fill:none}.cls-8,.cls-9{stroke:#c70039;stroke-linejoin:round}.cls-10,.cls-8,.cls-9{stroke-linecap:round;stroke-width:2px}.cls-10{stroke:#900c3f;stroke-miterlimit:10}.cls-11{font-size:15.53px;letter-spacing:.29em}.cls-11,.cls-16{font-family:Calibri,Calibri}.cls-12{letter-spacing:.3em}.cls-13,.cls-16{font-size:18.07px}.cls-13,.cls-14,.cls-16{letter-spacing:.3em}.cls-15{letter-spacing:.29em}</style></defs><title>bg</title><ellipse cx="500.81" cy="779.25" class="cls-1" rx="26.93" ry="4.55"/><path d="M584.14,153.07c-64-2.23-125-22.9-183.27-45.52S284.95,59.87,222.44,47.89c-40.2-7.71-86.18-8.8-118.57,12.75C72.7,81.42,62.62,117.19,57.21,150.42c-4.08,25-6.47,51.3,4.69,74.69,7.76,16.25,21.51,29.9,31,45.47,33.12,54.14,9.71,120.91-26.17,173.78-16.82,24.81-36.36,48.48-49.35,74.86s-19,56.65-7.63,83.58C21,629.52,47.88,649.55,77,663.65c59.06,28.65,128.63,36.84,196.52,41.48C423.71,715.4,574.73,711,725.36,706.5c55.75-1.65,111.73-3.32,166.57-11.94,30.46-4.79,61.89-12.38,84-30.72,28.06-23.28,35-62.7,16.21-91.9C960.59,523,873.4,510.8,851.33,458.25c-12.13-28.93.33-61.15,18-88,37.84-57.55,101.25-108,104.59-173.82,2.3-45.18-28.19-90.43-75.33-111.81C849.15,62.24,780.63,65,744.2,102.14,706.65,140.34,640.69,155,584.14,153.07Z" class="cls-2" transform="translate(-3.77 -42.84)"/><ellipse cx="499.45" cy="740.44" class="cls-3" rx="257.95" ry="34.89"/><rect width="10.6" height="87.39" x="668.78" y="161.7" class="cls-4" rx="2.74" ry="2.74"/><rect width="354.75" height="720.97" x="319.52" class="cls-4" rx="46.67" ry="46.67"/><path d="M628,61.57H587.31v4.9a23.2,23.2,0,0,1-23.2,23.2H434.68a23.2,23.2,0,0,1-23.21-23.18h0v-4.9h-38.1a28.17,28.17,0,0,0-28.17,28.17h0V716.86A28.17,28.17,0,0,0,373.38,745H628a28.17,28.17,0,0,0,28.17-28.17V89.8A28.17,28.17,0,0,0,628,61.57Z" class="cls-5" transform="translate(-3.77 -42.84)"/><circle cx="546.38" cy="21.84" r="5.5" class="cls-6"/><rect width="49.54" height="10.05" x="474.69" y="16.81" class="cls-6" rx="4.63" ry="4.63"/><rect width="89.37" height="3.99" x="454.77" y="690.53" class="cls-6" rx="1.67" ry="1.67"/><rect width="247.69" height="525.71" x="375.61" y="82.09" class="cls-7" rx="17.77" ry="17.77"/><polyline points="498.28 223.69 473.98 264.83 491.43 264.83" class="cls-8"/><line x1="495.82" x2="521.99" y1="264.8" y2="264.8" class="cls-9"/><line x1="508.9" x2="508.9" y1="251.09" y2="290.97" class="cls-10"/><path d="M512.67,333.89a44,44,0,1,0-10,1" class="cls-10" transform="translate(-3.77 -42.84)"/><text class="cls-11" transform="translate(445.87 309.26)">t<tspan x="9.67" y="0" class="cls-12">ap</tspan><tspan x="34.59" y="0" class="cls-13">4</tspan><tspan x="49.17" y="0" class="cls-14">o</tspan><tspan x="62.01" y="0" class="cls-15">r</tspan><tspan x="71.88" y="0" class="cls-12">der</tspan></text><line x1="468.65" x2="522.98" y1="386.68" y2="386.68" class="cls-10"/><line x1="495.82" x2="495.82" y1="360.61" y2="412.75" class="cls-10"/><text class="cls-16" transform="translate(398.46 480.08)">ORDER MEDICINE</text></svg>